<svg width="709" height="466" viewBox="0 0 709 466" fill="none" xmlns="http://www.w3.org/2000/svg">
<g clip-path="url(#clip0_1_2)">
<path d="M489.882 0.641846H50.7999C37.4596 0.657998 24.6703 5.96324 15.2354 15.3945C5.80049 24.8257 0.491497 37.6132 0.471741 50.9539V317.92C0.486099 331.262 5.79314 344.055 15.2299 353.49C24.6648 362.925 37.456 368.234 50.7999 368.248H489.882C503.226 368.233 516.017 362.925 525.452 353.49C534.889 344.055 540.196 331.262 540.21 317.92V50.9539C540.19 37.6137 534.881 24.8261 525.446 15.3945C516.011 5.96278 503.222 0.657927 489.882 0.641846V0.641846ZM50.7999 18.7848H489.882C498.412 18.7937 506.591 22.1858 512.625 28.216C518.659 34.2462 522.054 42.4232 522.069 50.9534V208.137L422.542 132.111H422.54C420.959 130.9 419.021 130.243 417.027 130.243C415.034 130.243 413.096 130.9 411.513 132.111L242.485 261.232L134.568 137.951C132.788 135.918 130.194 134.783 127.493 134.857C124.792 134.932 122.265 136.207 120.598 138.335L18.6175 268.636V50.9516C18.6318 42.4213 22.0275 34.2444 28.0615 28.2141C34.0956 22.1838 42.2743 18.7916 50.8045 18.7829L50.7999 18.7848ZM18.6128 317.921V298.074L128.151 158.142L296.187 350.093H50.7976C42.2674 350.084 34.0886 346.692 28.0546 340.662C22.0206 334.632 18.6252 326.454 18.6105 317.924L18.6128 317.921ZM489.875 350.109H320.313L254.487 274.91L417.042 150.71L522.087 230.949V317.919C522.075 326.451 518.675 334.63 512.64 340.66C506.604 346.692 498.422 350.083 489.89 350.088L489.875 350.109ZM286.516 156.766C300.369 156.766 313.654 151.263 323.45 141.467C333.246 131.672 338.748 118.385 338.748 104.533C338.748 90.6797 333.246 77.3932 323.45 67.599C313.654 57.8034 300.37 52.2987 286.516 52.2987C272.662 52.2987 259.378 57.803 249.582 67.599C239.786 77.3927 234.283 90.6792 234.283 104.533C234.292 118.383 239.799 131.663 249.592 141.456C259.384 151.25 272.666 156.757 286.515 156.765L286.516 156.766ZM286.516 70.4848C295.554 70.483 304.221 74.0707 310.612 80.4619C317.003 86.851 320.595 95.5182 320.595 104.555C320.596 113.593 317.005 122.26 310.616 128.651C304.225 135.042 295.558 138.632 286.52 138.632C277.483 138.63 268.816 135.038 262.425 128.648C256.036 122.257 252.446 113.59 252.448 104.552C252.459 95.5205 256.052 86.8607 262.44 80.4752C268.825 74.0879 277.485 70.4963 286.516 70.4857V70.4848Z" fill="black"/>
</g>
<path d="M683.569 278.15C706.914 254.805 714.176 221.482 705.372 191.916L652.033 245.255L621.172 245.593L593.363 217.782L593.705 186.924L647.044 133.585C617.481 124.776 584.147 132.045 560.806 155.386C537.603 178.589 530.303 211.655 538.865 241.084L385.82 394.129C369.523 410.426 369.527 436.845 385.82 453.138C402.114 469.432 428.536 469.432 444.83 453.138L597.867 300.098C627.297 308.665 660.367 301.355 683.569 278.154V278.15Z" fill="black"/>
<defs>
<clipPath id="clip0_1_2">
<rect width="540.647" height="368.703" fill="white" transform="translate(0 0.0543518)"/>
</clipPath>
</defs>
</svg>
