<svg width="1075" height="1024" viewBox="0 0 1075 1024" fill="none" xmlns="http://www.w3.org/2000/svg">
<rect width="1024" height="1024" rx="100" fill="black"/>
<g clip-path="url(#clip0_2_8)">
<path d="M687.882 308.642H248.8C235.46 308.658 222.67 313.963 213.235 323.394C203.8 332.826 198.491 345.613 198.472 358.954V625.92C198.486 639.262 203.793 652.055 213.23 661.49C222.665 670.925 235.456 676.234 248.8 676.248H687.882C701.226 676.233 714.017 670.925 723.452 661.49C732.889 652.055 738.196 639.262 738.21 625.92V358.954C738.19 345.614 732.881 332.826 723.446 323.394C714.011 313.963 701.222 308.658 687.882 308.642V308.642ZM248.8 326.785H687.882C696.412 326.794 704.591 330.186 710.625 336.216C716.659 342.246 720.054 350.423 720.069 358.953V516.137L620.542 440.111H620.54C618.959 438.9 617.021 438.243 615.027 438.243C613.034 438.243 611.096 438.9 609.513 440.111L440.485 569.232L332.568 445.951C330.788 443.918 328.194 442.783 325.493 442.857C322.792 442.932 320.265 444.207 318.598 446.335L216.617 576.636V358.951C216.632 350.421 220.027 342.244 226.062 336.214C232.096 330.184 240.274 326.792 248.805 326.783L248.8 326.785ZM216.613 625.921V606.073L326.151 466.142L494.187 658.093H248.798C240.267 658.084 232.089 654.692 226.055 648.662C220.021 642.631 216.625 634.454 216.611 625.924L216.613 625.921ZM687.875 658.109H518.313L452.487 582.91L615.042 458.71L720.087 538.949V625.919C720.075 634.451 716.675 642.63 710.64 648.66C704.604 654.692 696.422 658.083 687.89 658.088L687.875 658.109ZM484.516 464.766C498.369 464.766 511.654 459.263 521.45 449.467C531.246 439.672 536.748 426.385 536.748 412.533C536.748 398.68 531.246 385.393 521.45 375.599C511.654 365.803 498.37 360.299 484.516 360.299C470.662 360.299 457.378 365.803 447.582 375.599C437.786 385.393 432.283 398.679 432.283 412.533C432.292 426.383 437.799 439.662 447.592 449.456C457.384 459.25 470.666 464.756 484.515 464.765L484.516 464.766ZM484.516 378.485C493.554 378.483 502.221 382.071 508.612 388.462C515.003 394.851 518.595 403.518 518.595 412.555C518.596 421.593 515.005 430.26 508.616 436.651C502.225 443.042 493.558 446.631 484.52 446.631C475.483 446.63 466.816 443.038 460.425 436.648C454.036 430.257 450.446 421.59 450.448 412.551C450.459 403.52 454.052 394.861 460.44 388.475C466.825 382.088 475.485 378.496 484.516 378.486V378.485Z" fill="white"/>
</g>
<g clip-path="url(#clip1_2_8)">
<path d="M881.569 586.15C904.914 562.805 912.176 529.482 903.372 499.916L850.033 553.255L819.172 553.593L805.267 539.686L791.363 525.782L791.705 494.924L845.044 441.585C815.481 432.776 782.147 440.045 758.806 463.386C735.603 486.589 728.303 519.655 736.865 549.084L583.82 702.129C567.523 718.426 567.527 744.845 583.82 761.138C600.114 777.432 626.536 777.432 642.83 761.138L795.867 608.098C825.297 616.665 858.367 609.355 881.569 586.154L881.569 586.15Z" fill="white"/>
</g>
<defs>
<clipPath id="clip0_2_8">
<rect width="540.647" height="368.703" fill="white" transform="translate(198 308.054)"/>
</clipPath>
<clipPath id="clip1_2_8">
<rect width="475.049" height="475.049" fill="white" transform="translate(739.09 269.5) rotate(45)"/>
</clipPath>
</defs>
</svg>
